<svg width="17" height="16" viewBox="0 0 17 16" fill="none" xmlns="http://www.w3.org/2000/svg">
<path fill-rule="evenodd" clip-rule="evenodd" d="M7.09572 5.73973L5.75989 7.77179C5.75989 7.77179 6.68131 9.67279 8.58147 10.5871L8.58409 10.5853L10.5839 9.24926C10.5839 9.24926 10.8555 9.06502 11.1823 9.03492C11.1823 9.03492 11.5091 9.00482 11.8058 9.13465L15.5498 10.743C15.5498 10.743 15.9476 10.9085 16.1633 11.2815C16.1633 11.2815 16.3789 11.6546 16.3241 12.0817C16.3241 12.0817 16.1089 13.7616 14.8379 14.8806C14.8379 14.8806 13.5668 15.9996 11.8734 16C11.8734 16 9.57788 16 7.45708 15.1214C7.45708 15.1214 5.33629 14.2428 3.71311 12.6193C3.71311 12.6193 2.08993 10.9959 1.21147 8.87472C1.21147 8.87472 0.333008 6.75357 0.333008 4.45751C0.333008 4.45751 0.33339 2.76392 1.45221 1.49268C1.45221 1.49268 2.57103 0.221446 4.25039 0.00624615C4.25039 0.00624615 4.67771 -0.0486533 5.05066 0.167066C5.05066 0.167066 5.42361 0.382786 5.58654 0.77441L7.19616 4.53083C7.19616 4.53083 7.32376 4.82467 7.29821 5.14401C7.29821 5.14401 7.27267 5.46335 7.09572 5.73973ZM4.60326 8.32542L4.60224 8.32328C4.60224 8.32328 4.45893 8.02245 4.48025 7.68975C4.48025 7.68975 4.50165 7.35587 4.6834 7.075L6.02001 5.04169L4.40795 1.2796C4.40795 1.2796 3.21185 1.43432 2.4147 2.34006C2.4147 2.34006 1.61555 3.24809 1.61527 4.45779C1.61527 4.45779 1.61527 6.49847 2.39613 8.38393C2.39613 8.38393 3.17698 10.2694 4.61981 11.7125C4.61981 11.7125 6.06264 13.1555 7.94778 13.9365C7.94778 13.9365 9.83293 14.7175 11.8734 14.7175C11.8734 14.7175 13.0827 14.7172 13.9906 13.918C13.9906 13.918 14.8963 13.1206 15.0515 11.9246L11.3 10.3131L9.29634 11.6518C9.29634 11.6518 9.01736 11.8402 8.67858 11.8659C8.67858 11.8659 8.3398 11.8916 8.03272 11.7462C8.03272 11.7462 5.72091 10.6339 4.60454 8.32808L4.60406 8.32708L4.60377 8.32648L4.60326 8.32542Z" fill="white"/>
</svg>
